<?xml version="1.0" encoding="UTF-8"?>
<!-- Generated by jsxcad -->
<!DOCTYPE svg PUBLIC "-//W3C//DTD SVG 1.1 Tiny//EN" "http://www.w3.org/Graphics/SVG/1.1/DTD/svg11-tiny.dtd">
<svg baseProfile="tiny" height="8.56524129789596mm" width="12.095854635301766mm" viewBox="-6.047163136597556 -4.282620749584228 12.095854635301766 8.56524129789596" version="1.1" stroke="black" stroke-width=".1" fill="none" xmlns="http://www.w3.org/2000/svg">
<path fill="#000000" stroke="#000000" d="M-0.8440931007021237 4.282620749584223 L-0.8698564315745209 4.281054930623402 L-1.074370457045793 4.251731459415128 L-1.154568775556453 4.210108238613031 L-1.17942881945095 4.135007162044708 L-1.1674425075510981 4.0575018748416 L-1.1689764121207282 3.9793088053639423 L-1.1837931489997757 3.9010238407557996 L-1.2116499404900614 3.82324410420113 L-1.2823823895511706 3.7347563855881343 L-1.3791797474874201 3.660245536064316 L-1.496678300112334 3.601507535618796 L-1.6295087859765116 3.5603366603136632 L-1.7712288069758242 3.5385886553281893 L-1.9150816947358733 3.5374326123089292 L-2.055231095915366 3.5576422516752184 L-2.18584373957107 3.5999876122555285 L-2.272690244495271 3.651480735616548 L-2.349566891718398 3.708752280421996 L-2.4156808996202757 3.7714424431473437 L-2.4702340930426137 3.839192656307957 L-2.5524498039583485 3.889755127299124 L-2.6514218887829504 3.8901768300824187 L-2.8523629541285858 3.825241401983453 L-2.868170918017397 3.818496032068205 L-2.935980213668445 3.751840199731704 L-2.926839902868072 3.6749780267247965 L-2.8816057078637765 3.60388320656458 L-2.8489302674424746 3.529178952549122 L-2.8288479349311118 3.4514838975571016 L-2.821388473473915 3.3714190289926944 L-2.850033345591599 3.271797975904095 L-2.909569848424256 3.179772897367488 L-2.9956806003342975 3.098224355614919 L-3.104042199884293 3.0300325048202845 L-3.229337425343079 2.978370531399744 L-3.3656504032940986 2.9458272437394584 L-3.5077679715596704 2.9344142498432437 L-3.6504782924546184 2.946138982415969 L-3.7555562517409817 2.9761306280881 L-3.8536744445695774 3.0137973368737137 L-3.9439217927143044 3.058970190264531 L-4.025382627766343 3.1114826242777758 L-4.125649999995954 3.141601344353768 L-4.217487239533448 3.1209268079224404 L-4.407980546390557 2.9899268486447026 L-4.439620707698492 2.919454977566304 L-4.397145458986526 2.848417960967656 L-4.32290230871724 2.790806947435476 L-4.259008157672878 2.727001208904188 L-4.205767604191272 2.6575811253209722 L-4.163481919196169 2.583130324711542 L-4.146912533853078 2.4821464732762335 L-4.163041370277427 2.3815820620263826 L-4.209031525722738 2.2851250613848992 L-4.282040196912454 2.1964643790044183 L-4.37840888132094 2.1197861709979744 L-4.493653233725934 2.058852979037265 L-4.62370302190177 2.0167241034287757 L-4.764487436955243 1.9964545847830646 L-4.877536571805283 2.0018291488575413 L-4.9873451611739945 2.016029948541152 L-5.092973070633378 2.0390969868864226 L-5.193476838341355 2.071073515024412 L-5.302009907909781 2.077627727748767 L-5.386121336385346 2.0347467084821576 L-5.497571152831185 1.8743464973256316 L-5.4969532495099065 1.8062512798318326 L-5.4255448586274575 1.747972754163149 L-5.32978317791542 1.7094075412556244 L-5.241160130178526 1.6626884475158472 L-5.160218775614324 1.6083008889104484 L-5.087500427649491 1.54673409795029 L-5.027657988378896 1.4543107348761524 L-4.999097737624527 1.355139026630359 L-5.000731456955906 1.2533466786417757 L-5.031465725120457 1.1530635774879476 L-5.089648382474196 1.0590708377444638 L-5.172656890994765 0.9759271918768849 L-5.277955580780937 0.9074320056011836 L-5.403006373942773 0.8573807193112414 L-5.512872948587297 0.8377818274278491 L-5.623510455957318 0.8272858441863286 L-5.7340422026196425 0.8261363135680949 L-5.843589748370213 0.834580596098794 L-5.949676082571884 0.8170907957748568 L-6.018306347234789 0.7508230415712637 L-6.022677479651398 0.7375217818714672 L-6.047161043298337 0.5865280425652685 L-6.016008586064117 0.5199246328542594 L-5.922698586064116 0.4800498558008684 L-5.814803586064117 0.4642389105593269 L-5.710149586064117 0.43911438304011297 L-5.609464586064116 0.40501967548434 L-5.513476586064116 0.36230220184154543 L-5.416302586064116 0.287422059420083 L-5.3459505860641165 0.19930167451532013 L-5.303182586064116 0.10210520047159873 L-5.288756586064117 1.79e-321 L-5.303182586064116 -0.10210520047159873 L-5.3459505860641165 -0.19930167451532013 L-5.416302586064116 -0.287422059420083 L-5.513476586064116 -0.36230220184154543 L-5.609464586064116 -0.404900928914983 L-5.710149586064117 -0.4390076715960287 L-5.814803586064117 -0.4641995958167695 L-5.922698586064116 -0.4800498558008684 L-6.016008586064117 -0.5198179214101752 L-6.047163136597551 -0.5865151328810312 L-6.0226774796514 -0.737521781871462 L-6.01830691945918 -0.7508213003050414 L-5.949722546676953 -0.8169892756983227 L-5.843589748370213 -0.834580596098794 L-5.734059320974142 -0.826098911434635 L-5.623556920062386 -0.8271843241097944 L-5.512924653004967 -0.837668857718623 L-5.403006373942773 -0.8573807193112414 L-5.277955580780937 -0.9074320056011836 L-5.172656890994765 -0.9759271918768849 L-5.089648382474196 -1.0590708377444638 L-5.031465725120457 -1.1530635774879476 L-5.000731456955906 -1.2533466786417757 L-4.999097737624527 -1.355139026630359 L-5.027657988378896 -1.4543107348761524 L-5.087500427649491 -1.54673409795029 L-5.160270480031994 -1.608187919201222 L-5.241206594283596 -1.6625869274393128 L-5.329800296269919 -1.7093701391221643 L-5.4255448586274575 -1.747972754163149 L-5.496999713614975 -1.8061497597552985 L-5.497579921831659 -1.8743338768514797 L-5.3861269280191975 -2.0347386609206715 L-5.302098417124432 -2.0775413288598026 L-5.193476838341355 -2.071073515024412 L-5.093005679291408 -2.0390651557168042 L-4.987433670388645 -2.0159435496521874 L-4.877635063262188 -2.001733005732979 L-4.764487436955243 -1.9964545847830646 L-4.62370302190177 -2.0167241034287757 L-4.493653233725934 -2.058852979037265 L-4.37840888132094 -2.1197861709979744 L-4.282040196912454 -2.1964643790044183 L-4.209031525722738 -2.2851250613848992 L-4.163041370277427 -2.3815820620263826 L-4.146912533853078 -2.4821464732762335 L-4.163481919196169 -2.583130324711542 L-4.205866095648177 -2.65748498219641 L-4.259096666887529 -2.7269148100152236 L-4.32293491737527 -2.7907751162658574 L-4.397145458986526 -2.848417960967656 L-4.439709216913144 -2.9193685786773393 L-4.407989015284655 -2.989921024687944 L-4.21750148006661 -3.1209170148788155 L-4.125772098856254 -3.1415387139754816 L-4.025382627766343 -3.1114826242777758 L-3.9439667765049418 -3.058947115914636 L-3.853796543429879 -3.0137347064954274 L-3.7556921211494374 -2.9760609341333155 L-3.6504782924546184 -2.946138982415969 L-3.5077679715596704 -2.9344142498432437 L-3.3656504032940986 -2.9458272437394584 L-3.229337425343079 -2.978370531399744 L-3.104042199884293 -3.0300325048202845 L-2.9956806003342975 -3.098224355614919 L-2.909569848424256 -3.179772897367488 L-2.850033345591599 -3.271797975904095 L-2.821388473473915 -3.3714190289926944 L-2.8289838043395674 -3.451414203602317 L-2.849052366302776 -3.5291163221708364 L-2.881650691654414 -3.6038601322146846 L-2.926839902868072 -3.6749780267247965 L-2.9361023125287464 -3.7517775693534183 L-2.868172993196157 -3.818495146574763 L-2.8523629541285938 -3.82524140198345 L-2.6514388156089677 -3.890171360067159 L-2.5525932720722455 -3.889722248637974 L-2.4702340930426137 -3.839192656307957 L-2.415733756293817 -3.771430329956394 L-2.349710359832295 -3.708719401760846 L-2.2728498932235173 -3.6514441488357194 L-2.18584373957107 -3.5999876122555285 L-2.055231095915366 -3.5576422516752184 L-1.9150816947358733 -3.5374326123089292 L-1.7712288069758242 -3.5385886553281893 L-1.6295087859765116 -3.5603366603136632 L-1.496678300112334 -3.601507535618796 L-1.3791797474874201 -3.660245536064316 L-1.2823823895511706 -3.7347563855881343 L-1.2116499404900614 -3.82324410420113 L-1.1839527977280222 -3.9009872539749706 L-1.1691198802346252 -3.979275926702792 L-1.1674953642246393 -4.0574897616506505 L-1.17942881945095 -4.135007162044708 L-1.15471224367035 -4.2100753599518805 L-1.074388200512955 -4.251728915335096 L-0.8698564315745282 -4.281054930623401 L-0.8440964123556453 -4.282620548311728 L-0.7347571927710842 -4.257013182219988 L-0.6784061807228915 -4.190985699986486 L-0.6560621619812583 -4.1146376644534906 L-0.6205561941097723 -4.040583006585471 L-0.5723735729585007 -3.969336869529634 L-0.5120052637215528 -3.9014143964331867 L-0.4061846894243641 -3.832652692879887 L-0.2816530120481927 -3.782870617752984 L-0.14429501070950468 -3.752607373082933 L0 -3.742399330443339 L0.14429501070950468 -3.752607373082933 L0.2816530120481927 -3.782870617752984 L0.4061846894243641 -3.832652692879887 L0.5120052637215528 -3.9014143964331867 L0.5722057603748326 -3.969336869529634 L0.6204053895582329 -4.040583006585471 L0.6560066024096384 -4.1146376644534906 L0.6784061807228915 -4.190985699986486 L0.7346063882195447 -4.257013182219988 L0.8260046966353505 -4.278390098986096 L1.0710391967822732 -4.253460395683028 L1.154568775556453 -4.210108238613031 L1.17942881945095 -4.135007162044708 L1.1674425075510981 -4.0575018748416 L1.1689764121207282 -3.9793088053639423 L1.1837931489997757 -3.9010238407557996 L1.2116499404900614 -3.82324410420113 L1.2823823895511706 -3.7347563855881343 L1.3791797474874201 -3.660245536064316 L1.496678300112334 -3.601507535618796 L1.6295087859765116 -3.5603366603136632 L1.7712288069758242 -3.5385886553281893 L1.9150816947358733 -3.5374326123089292 L2.055231095915366 -3.5576422516752184 L2.18584373957107 -3.5999876122555285 L2.272690244495271 -3.651480735616548 L2.349566891718398 -3.708752280421996 L2.4156808996202757 -3.7714424431473437 L2.4702340930426137 -3.839192656307957 L2.5524498039583485 -3.889755127299124 L2.657021062143038 -3.8902006871830777 L2.879870497287498 -3.8069954673337087 L2.935980213668445 -3.751840199731704 L2.926839902868072 -3.6749780267247965 L2.8816057078637765 -3.60388320656458 L2.8489302674424746 -3.529178952549122 L2.8288479349311118 -3.4514838975571016 L2.821388473473915 -3.3714190289926944 L2.850033345591599 -3.271797975904095 L2.909569848424256 -3.179772897367488 L2.9956806003342975 -3.098224355614919 L3.104042199884293 -3.0300325048202845 L3.229337425343079 -2.978370531399744 L3.3656504032940986 -2.9458272437394584 L3.5077679715596704 -2.9344142498432437 L3.6504782924546184 -2.946138982415969 L3.7555562517409817 -2.9761306280881 L3.8536744445695774 -3.0137973368737137 L3.9439217927143044 -3.058970190264531 L4.025382627766343 -3.1114826242777758 L4.125649999995954 -3.141601344353768 L4.23470421253578 -3.1170508972639044 L4.259820225748871 -3.1016509834705377 L4.409702009135575 -2.9860926488297115 L4.439620707698492 -2.919454977566304 L4.397145458986526 -2.848417960967656 L4.32290230871724 -2.790806947435476 L4.259008157672878 -2.727001208904188 L4.205767604191272 -2.6575811253209722 L4.163481919196169 -2.583130324711542 L4.146912533853078 -2.4821464732762335 L4.163041370277427 -2.3815820620263826 L4.209031525722738 -2.2851250613848992 L4.282040196912454 -2.1964643790044183 L4.37840888132094 -2.1197861709979744 L4.493653233725934 -2.058852979037265 L4.62370302190177 -2.0167241034287757 L4.764487436955243 -1.9964545847830646 L4.877536571805283 -2.0018291488575413 L4.9873451611739945 -2.016029948541152 L5.092973070633378 -2.0390969868864226 L5.193476838341355 -2.071073515024412 L5.302009907909781 -2.077627727748767 L5.382841190536406 -2.036418966341701 L5.485076639605644 -1.9083156729591217 L5.497687781202837 -1.8871993726219682 L5.4969532495099065 -1.8062512798318326 L5.4255448586274575 -1.747972754163149 L5.32978317791542 -1.7094075412556244 L5.241160130178526 -1.6626884475158472 L5.160218775614324 -1.6083008889104484 L5.087500427649491 -1.54673409795029 L5.027657988378896 -1.4543107348761524 L4.999097737624527 -1.355139026630359 L5.000731456955906 -1.2533466786417757 L5.031465725120457 -1.1530635774879476 L5.089648382474196 -1.0590708377444638 L5.172656890994765 -0.9759271918768849 L5.277955580780937 -0.9074320056011836 L5.403006373942773 -0.8573807193112414 L5.512872948587297 -0.8377818274278491 L5.623510455957318 -0.8272858441863286 L5.7340422026196425 -0.8261363135680949 L5.843589748370213 -0.834580596098794 L5.949676082571884 -0.8170907957748568 L6.006526099081447 -0.7621977695126083 L6.04868941050438 -0.5897956649697412 L6.016008586064117 -0.5199246328542594 L5.922698586064116 -0.4800498558008684 L5.814803586064117 -0.4642389105593269 L5.710149586064117 -0.43911438304011297 L5.609464586064116 -0.40501967548434 L5.513476586064116 -0.36230220184154543 L5.416302586064116 -0.287422059420083 L5.3459505860641165 -0.19930167451532013 L5.303182586064116 -0.10210520047159873 L5.288756586064117 1.79e-321 L5.303182586064116 0.10210520047159873 L5.3459505860641165 0.19930167451532013 L5.416302586064116 0.287422059420083 L5.513476586064116 0.36230220184154543 L5.609464586064116 0.404900928914983 L5.710149586064117 0.4390076715960287 L5.814803586064117 0.4641995958167695 L5.922698586064116 0.4800498558008684 L6.016008586064117 0.5198179214101752 L6.048691498704205 0.5897871265027057 L6.006529529242597 0.7621837438827116 L5.949722546676953 0.8169892756983227 L5.843589748370213 0.834580596098794 L5.734059320974142 0.826098911434635 L5.623556920062386 0.8271843241097944 L5.512924653004967 0.837668857718623 L5.403006373942773 0.8573807193112414 L5.277955580780937 0.9074320056011836 L5.172656890994765 0.9759271918768849 L5.089648382474196 1.0590708377444638 L5.031465725120457 1.1530635774879476 L5.000731456955906 1.2533466786417757 L4.999097737624527 1.355139026630359 L5.027657988378896 1.4543107348761524 L5.087500427649491 1.54673409795029 L5.160270480031994 1.608187919201222 L5.241206594283596 1.6625869274393128 L5.329800296269919 1.7093701391221643 L5.4255448586274575 1.747972754163149 L5.496999713614975 1.8061497597552985 L5.497689377173663 1.8871967003024928 L5.485076639605647 1.9083156729591177 L5.3828500761064975 2.036407832524589 L5.302098417124432 2.0775413288598026 L5.193476838341355 2.071073515024412 L5.093005679291408 2.0390651557168042 L4.987433670388645 2.0159435496521874 L4.877635063262188 2.001733005732979 L4.764487436955243 1.9964545847830646 L4.62370302190177 2.0167241034287757 L4.493653233725934 2.058852979037265 L4.37840888132094 2.1197861709979744 L4.282040196912454 2.1964643790044183 L4.209031525722738 2.2851250613848992 L4.163041370277427 2.3815820620263826 L4.146912533853078 2.4821464732762335 L4.163481919196169 2.583130324711542 L4.205866095648177 2.65748498219641 L4.259096666887529 2.7269148100152236 L4.32293491737527 2.7907751162658574 L4.397145458986526 2.848417960967656 L4.439709216913144 2.9193685786773393 L4.4097146120601645 2.9860829320186077 L4.259820225748877 3.101650983470533 L4.234707384598664 3.1170489523097213 L4.125772098856254 3.1415387139754816 L4.025382627766343 3.1114826242777758 L3.9439667765049418 3.058947115914636 L3.853796543429879 3.0137347064954274 L3.7556921211494374 2.9760609341333155 L3.6504782924546184 2.946138982415969 L3.5077679715596704 2.9344142498432437 L3.3656504032940986 2.9458272437394584 L3.229337425343079 2.978370531399744 L3.104042199884293 3.0300325048202845 L2.9956806003342975 3.098224355614919 L2.909569848424256 3.179772897367488 L2.850033345591599 3.271797975904095 L2.821388473473915 3.3714190289926944 L2.8289838043395674 3.451414203602317 L2.849052366302776 3.5291163221708364 L2.881650691654414 3.6038601322146846 L2.926839902868072 3.6749780267247965 L2.9361023125287464 3.7517775693534183 L2.879888300549691 3.8069888201355955 L2.6570315507946805 3.8901967710386853 L2.5525932720722455 3.889722248637974 L2.4702340930426137 3.839192656307957 L2.415733756293817 3.771430329956394 L2.349710359832295 3.708719401760846 L2.2728498932235173 3.6514441488357194 L2.18584373957107 3.5999876122555285 L2.055231095915366 3.5576422516752184 L1.9150816947358733 3.5374326123089292 L1.7712288069758242 3.5385886553281893 L1.6295087859765116 3.5603366603136632 L1.496678300112334 3.601507535618796 L1.3791797474874201 3.660245536064316 L1.2823823895511706 3.7347563855881343 L1.2116499404900614 3.82324410420113 L1.1839527977280222 3.9009872539749706 L1.1691198802346252 3.979275926702792 L1.1674953642246393 4.0574897616506505 L1.17942881945095 4.135007162044708 L1.15471224367035 4.2100753599518805 L1.0710516935686485 4.253459124265426 L0.8260244932705407 4.278388084885056 L0.7347571927710842 4.257013182219988 L0.6784061807228915 4.190985699986486 L0.6560621619812583 4.1146376644534906 L0.6205561941097723 4.040583006585471 L0.5723735729585007 3.969336869529634 L0.5120052637215528 3.9014143964331867 L0.4061846894243641 3.832652692879887 L0.2816530120481927 3.782870617752984 L0.14429501070950468 3.752607373082933 L0 3.742399330443339 L-0.14429501070950468 3.752607373082933 L-0.2816530120481927 3.782870617752984 L-0.4061846894243641 3.832652692879887 L-0.5120052637215528 3.9014143964331867 L-0.5722057603748326 3.969336869529634 L-0.6204053895582329 4.040583006585471 L-0.6560066024096384 4.1146376644534906 L-0.6784061807228915 4.190985699986486 L-0.7346063882195447 4.257013182219988 z"/>
</svg>